<svg width="512" height="512" viewBox="-27.6 -9.1 109.2 109.2" fill="none" xmlns="http://www.w3.org/2000/svg">
<rect x="-27.6" y="-9.1" width="109.2" height="109.2" fill="#05155E"/>
<path d="M51.0649 82.5025C50.7069 82.7676 50.3488 83.0349 49.9931 83.2999C50.014 85.2278 50.035 87.1556 50.0559 89.0835C43.855 87.7959 35.2763 86.5064 26.3784 86.4548C16.8923 86.4009 9.55154 87.7396 3.074 89.0835C3.09493 87.1556 3.11585 85.2278 3.13678 83.2999C2.77873 83.0349 2.42067 82.7676 2.06494 82.5025C3.04378 82.1343 4.02494 81.7661 5.00378 81.3955V76.6369C4.61782 76.4258 4.22954 76.2148 3.84359 76.0037C4.58295 75.6144 5.32231 75.2274 6.06167 74.8381C5.61294 70.8557 5.71524 67.842 5.91984 66.6975C6.17559 65.2598 6.65222 63.55 6.65222 63.55C6.65687 63.536 6.66152 63.5219 6.66385 63.5055C9.74451 52.8062 17.6101 46.305 21.1372 43.7298V42.3062L20.0886 40.5542H21.5022V34.4658C21.8951 34.0202 22.302 33.5113 22.7042 32.939C23.2041 32.2237 23.604 31.5412 23.9179 30.922L23.8272 27.1344L23.4389 26.7685V25.9734L24.3969 25.7905C24.4596 24.9133 24.5224 24.0385 24.5829 23.1614C24.9153 18.9633 25.2455 14.7675 25.578 10.5694L26.4289 0.0834961L27.3031 10.5413L28.2146 23.2388C28.2704 24.0784 28.3285 24.9204 28.3843 25.76L29.477 26.0297V26.7357L28.9609 27.1695V30.9385C29.2259 31.5037 29.5817 32.1533 30.0629 32.8382C30.4977 33.4573 30.9465 33.978 31.358 34.4095L31.3417 40.5284H32.8809L31.7021 42.3296V43.6665C35.0594 46.0845 42.6251 52.2339 45.8452 62.4994C46.4474 64.4225 46.7915 66.3246 46.7915 66.3246C47.4077 69.8003 47.2961 72.7695 47.0682 74.8381C47.8076 75.2274 48.5469 75.6144 49.2863 76.0037C48.9003 76.2148 48.5121 76.4258 48.1261 76.6369V81.3955C49.1049 81.7638 50.0861 82.132 51.0649 82.5025Z" fill="white" stroke="white" stroke-width="2" stroke-miterlimit="10"/>
<path d="M50.0851 88.1516L50.0941 89.0835L46.813 88.4175C46.3455 85.4948 45.3927 84.4671 44.5836 84.079C44.1611 83.8754 43.3184 83.4873 41.7205 83.7795C39.4732 84.1892 38.6866 83.8322 38.4237 83.3651C37.9585 82.5386 38.8822 80.888 38.2304 80.3418C38.0911 80.2244 37.9652 80.2316 37.6326 79.9753C37.309 79.7237 37.0146 79.4961 37.0124 79.1943C37.0124 78.8517 37.3809 78.5858 37.536 78.4756C37.9495 78.1785 38.3203 78.1977 38.3293 78.0611C38.3361 77.9485 38.0888 77.8623 37.8776 77.7569C37.4191 77.5245 36.6393 76.94 36.6191 76.3602C36.5989 75.7134 37.5338 75.3085 37.3405 74.6593C37.336 74.6473 37.3337 74.6402 37.3292 74.6282C37.1427 74.0844 36.6528 73.9406 35.7494 73.4016C35.1785 73.0614 35.0932 72.9512 35.0707 72.8171C35.0235 72.5368 35.2752 72.2948 35.5449 71.9834C35.9561 71.5114 36.2415 70.9317 36.6236 70.4334C37.0371 69.8968 37.5922 68.9673 38.1608 67.252V63.601C38.2776 62.6787 38.7743 59.6267 41.2306 57.5161C42.1003 56.7686 42.9835 56.3398 43.6847 56.0835C44.6938 58.0168 45.8781 60.7646 46.6265 64.2311C47.5389 68.4594 47.4467 72.0912 47.2018 74.5347C47.9164 74.9324 48.6311 75.3277 49.3457 75.7254L48.2243 76.3722V81.233L51.0649 82.3637L50.0289 83.1782C50.0469 84.836 50.0671 86.4938 50.0851 88.1516Z" fill="white"/>
<path d="M3.04478 88.1553L3.03579 89.0835C4.07855 88.8711 5.11907 88.6612 6.16183 88.4488C6.71242 85.49 7.71923 84.4759 8.54625 84.0989C8.98897 83.8985 9.81824 83.5119 11.4093 83.8006C13.6567 84.2087 14.4432 83.8531 14.7062 83.3878C15.1714 82.5646 14.2477 80.9206 14.8995 80.3766C15.0388 80.2596 15.1646 80.2668 15.4972 80.0115C15.8209 79.7609 16.1153 79.5343 16.1175 79.2336C16.1175 78.8924 15.7489 78.6275 15.5939 78.5178C15.1804 78.2219 14.8096 78.241 14.8006 78.105C14.7938 77.9928 15.041 77.9069 15.2523 77.8019C15.7107 77.5705 16.4906 76.9883 16.5108 76.4108C16.531 75.7666 15.5961 75.3633 15.7894 74.7167C15.7939 74.7048 15.7961 74.6976 15.8006 74.6857C15.9872 74.144 16.4771 74.0009 17.3805 73.464C17.9513 73.1251 18.0367 73.0154 18.0592 72.8818C18.1064 72.6026 17.8547 72.3616 17.585 72.0514C17.1738 71.5813 16.8883 71.0039 16.5063 70.5076C16.0928 69.9731 15.5377 69.0473 14.9691 67.3388V63.7024C14.8433 62.7622 14.3286 59.7796 11.8993 57.6416C10.9599 56.816 10.0025 56.3507 9.26764 56.0835C8.23836 57.9113 6.94615 60.6887 6.19779 64.2965C5.29885 68.6369 5.58202 72.3091 5.92811 74.595C5.21345 74.9911 4.4988 75.3848 3.78415 75.7809L4.90557 76.4251V81.2666L2.06494 82.3928L3.10096 83.2041C3.08298 84.8553 3.06276 86.5041 3.04478 88.1553Z" fill="white"/>
</svg>
