<svg width="200" height="91" viewBox="0 0 200 91" fill="none" xmlns="http://www.w3.org/2000/svg">
<path d="M68.8969 57.5715H67.7489L76.6809 40.9115H79.3689V59.0835H76.6809V45.1395L77.2689 45.2795L69.7369 59.0835H66.9089L59.3769 45.3075L59.9649 45.1675V59.0835H57.2769V40.9115H59.9649L68.8969 57.5715ZM88.7004 59.3915C87.3377 59.3915 86.087 59.1022 84.9484 58.5235C83.8097 57.9448 82.9044 57.1142 82.2324 56.0315C81.5604 54.9488 81.2244 53.6515 81.2244 52.1395C81.2244 50.6088 81.5604 49.3022 82.2324 48.2195C82.9044 47.1182 83.8097 46.2782 84.9484 45.6995C86.087 45.1208 87.3377 44.8315 88.7004 44.8315C90.063 44.8315 91.3044 45.1208 92.4244 45.6995C93.5444 46.2782 94.4404 47.1182 95.1124 48.2195C95.7844 49.3022 96.1204 50.6088 96.1204 52.1395C96.1204 53.6515 95.7844 54.9488 95.1124 56.0315C94.4404 57.1142 93.5444 57.9448 92.4244 58.5235C91.3044 59.1022 90.063 59.3915 88.7004 59.3915ZM88.7004 57.0675C89.5404 57.0675 90.315 56.8808 91.0244 56.5075C91.7524 56.1155 92.331 55.5555 92.7604 54.8275C93.2084 54.0808 93.4324 53.1848 93.4324 52.1395C93.4324 51.0755 93.2084 50.1702 92.7604 49.4235C92.331 48.6768 91.7524 48.1075 91.0244 47.7155C90.315 47.3235 89.5404 47.1275 88.7004 47.1275C87.8604 47.1275 87.0764 47.3235 86.3484 47.7155C85.6204 48.0888 85.0324 48.6488 84.5844 49.3955C84.1364 50.1422 83.9124 51.0568 83.9124 52.1395C83.9124 53.1848 84.127 54.0808 84.5564 54.8275C85.0044 55.5555 85.5924 56.1155 86.3204 56.5075C87.0484 56.8808 87.8417 57.0675 88.7004 57.0675ZM97.8128 39.5115H100.501V59.0835H97.8128V39.5115ZM113.721 54.5475H116.269C116.12 55.4622 115.765 56.2835 115.205 57.0115C114.645 57.7395 113.908 58.3182 112.993 58.7475C112.079 59.1768 111.005 59.3915 109.773 59.3915C108.317 59.3915 107.02 59.0835 105.881 58.4675C104.743 57.8515 103.847 57.0022 103.193 55.9195C102.54 54.8368 102.213 53.5768 102.213 52.1395C102.213 50.6835 102.531 49.4142 103.165 48.3315C103.8 47.2302 104.677 46.3715 105.797 45.7555C106.917 45.1395 108.196 44.8315 109.633 44.8315C111.145 44.8315 112.415 45.1302 113.441 45.7275C114.468 46.3248 115.224 47.2115 115.709 48.3875C116.213 49.5448 116.419 50.9915 116.325 52.7275H104.873C104.967 53.5675 105.219 54.3142 105.629 54.9675C106.059 55.6208 106.619 56.1342 107.309 56.5075C108.019 56.8808 108.831 57.0675 109.745 57.0675C110.772 57.0675 111.631 56.8342 112.321 56.3675C113.012 55.9008 113.479 55.2942 113.721 54.5475ZM109.661 47.1275C108.448 47.1275 107.44 47.4542 106.637 48.1075C105.835 48.7422 105.303 49.5915 105.041 50.6555H113.637C113.563 49.5168 113.152 48.6488 112.405 48.0515C111.659 47.4355 110.744 47.1275 109.661 47.1275ZM62.7089 84.0835L55.6249 65.9115H58.5649L64.6689 81.9835H63.8289L69.9329 65.9115H72.8169L65.7889 84.0835H62.7089ZM82.998 79.5475H85.546C85.3967 80.4622 85.042 81.2835 84.482 82.0115C83.922 82.7395 83.1847 83.3182 82.27 83.7475C81.3553 84.1768 80.282 84.3915 79.05 84.3915C77.594 84.3915 76.2967 84.0835 75.158 83.4675C74.0193 82.8515 73.1233 82.0022 72.47 80.9195C71.8167 79.8368 71.49 78.5768 71.49 77.1395C71.49 75.6835 71.8073 74.4142 72.442 73.3315C73.0767 72.2302 73.954 71.3715 75.074 70.7555C76.194 70.1395 77.4727 69.8315 78.91 69.8315C80.422 69.8315 81.6913 70.1302 82.718 70.7275C83.7447 71.3248 84.5007 72.2115 84.986 73.3875C85.49 74.5448 85.6953 75.9915 85.602 77.7275H74.15C74.2433 78.5675 74.4953 79.3142 74.906 79.9675C75.3353 80.6208 75.8953 81.1342 76.586 81.5075C77.2953 81.8808 78.1073 82.0675 79.022 82.0675C80.0487 82.0675 80.9073 81.8342 81.598 81.3675C82.2887 80.9008 82.7553 80.2942 82.998 79.5475ZM78.938 72.1275C77.7247 72.1275 76.7167 72.4542 75.914 73.1075C75.1113 73.7422 74.5793 74.5915 74.318 75.6555H82.914C82.8393 74.5168 82.4287 73.6488 81.682 73.0515C80.9353 72.4355 80.0207 72.1275 78.938 72.1275ZM87.0328 70.1115H89.7208V84.0835H87.0328V70.1115ZM95.0408 69.8315C95.8248 69.8315 96.5342 69.9435 97.1688 70.1675C97.8035 70.3915 98.3448 70.7275 98.7928 71.1755C99.2408 71.6048 99.5862 72.1462 99.8288 72.7995C100.09 73.4342 100.221 74.1622 100.221 74.9835V84.0835H97.5608V75.5715C97.5608 74.4702 97.2902 73.6488 96.7488 73.1075C96.2262 72.5475 95.4235 72.2675 94.3408 72.2675C93.5008 72.2675 92.7355 72.4635 92.0448 72.8555C91.3542 73.2475 90.7848 73.7702 90.3368 74.4235C89.9075 75.0582 89.6462 75.7768 89.5528 76.5795L89.5248 75.0395C89.6182 74.2928 89.8142 73.6022 90.1128 72.9675C90.4302 72.3328 90.8222 71.7822 91.2888 71.3155C91.7742 70.8302 92.3342 70.4662 92.9688 70.2235C93.6035 69.9622 94.2942 69.8315 95.0408 69.8315ZM101.36 70.1115H110.404V72.4355H101.36V70.1115ZM104.552 66.4155H107.212V84.0835H104.552V66.4155ZM124.737 84.0835H122.077V70.1115H124.737V84.0835ZM122.217 77.5035L122.245 78.3435C122.227 78.5862 122.161 78.9502 122.049 79.4355C121.956 79.9022 121.788 80.4155 121.545 80.9755C121.321 81.5355 121.004 82.0768 120.593 82.5995C120.201 83.1222 119.697 83.5515 119.081 83.8875C118.465 84.2235 117.719 84.3915 116.841 84.3915C116.244 84.3915 115.628 84.3075 114.993 84.1395C114.377 83.9715 113.808 83.6915 113.285 83.2995C112.763 82.9075 112.343 82.3755 112.025 81.7035C111.708 81.0128 111.549 80.1542 111.549 79.1275V70.1115H114.237V78.5675C114.237 79.4262 114.368 80.0982 114.629 80.5835C114.909 81.0688 115.301 81.4142 115.805 81.6195C116.309 81.8248 116.879 81.9275 117.513 81.9275C118.484 81.9275 119.296 81.6942 119.949 81.2275C120.621 80.7422 121.144 80.1635 121.517 79.4915C121.891 78.8008 122.124 78.1382 122.217 77.5035ZM126.856 70.1115H129.544V84.0835H126.856V70.1115ZM134.276 72.4915C133.306 72.4915 132.475 72.7155 131.784 73.1635C131.112 73.6115 130.571 74.1622 130.16 74.8155C129.768 75.4688 129.507 76.0942 129.376 76.6915L129.348 75.0955C129.367 74.9088 129.414 74.6195 129.488 74.2275C129.582 73.8168 129.74 73.3595 129.964 72.8555C130.188 72.3515 130.487 71.8755 130.86 71.4275C131.234 70.9608 131.7 70.5782 132.26 70.2795C132.82 69.9808 133.492 69.8315 134.276 69.8315V72.4915ZM146.08 79.5475H148.628C148.479 80.4622 148.124 81.2835 147.564 82.0115C147.004 82.7395 146.267 83.3182 145.352 83.7475C144.437 84.1768 143.364 84.3915 142.132 84.3915C140.676 84.3915 139.379 84.0835 138.24 83.4675C137.101 82.8515 136.205 82.0022 135.552 80.9195C134.899 79.8368 134.572 78.5768 134.572 77.1395C134.572 75.6835 134.889 74.4142 135.524 73.3315C136.159 72.2302 137.036 71.3715 138.156 70.7555C139.276 70.1395 140.555 69.8315 141.992 69.8315C143.504 69.8315 144.773 70.1302 145.8 70.7275C146.827 71.3248 147.583 72.2115 148.068 73.3875C148.572 74.5448 148.777 75.9915 148.684 77.7275H137.232C137.325 78.5675 137.577 79.3142 137.988 79.9675C138.417 80.6208 138.977 81.1342 139.668 81.5075C140.377 81.8808 141.189 82.0675 142.104 82.0675C143.131 82.0675 143.989 81.8342 144.68 81.3675C145.371 80.9008 145.837 80.2942 146.08 79.5475ZM142.02 72.1275C140.807 72.1275 139.799 72.4542 138.996 73.1075C138.193 73.7422 137.661 74.5915 137.4 75.6555H145.996C145.921 74.5168 145.511 73.6488 144.764 73.0515C144.017 72.4355 143.103 72.1275 142.02 72.1275Z" fill="#05155E"/>
<path d="M51.0649 82.5025C50.7069 82.7676 50.3488 83.0349 49.9931 83.2999C50.014 85.2278 50.035 87.1556 50.0559 89.0835C43.855 87.7959 35.2763 86.5064 26.3784 86.4548C16.8923 86.4009 9.55154 87.7396 3.074 89.0835C3.09493 87.1556 3.11585 85.2278 3.13678 83.2999C2.77873 83.0349 2.42067 82.7676 2.06494 82.5025C3.04378 82.1343 4.02494 81.7661 5.00378 81.3955V76.6369C4.61782 76.4258 4.22954 76.2148 3.84359 76.0037C4.58295 75.6144 5.32231 75.2274 6.06167 74.8381C5.61294 70.8557 5.71524 67.842 5.91984 66.6975C6.17559 65.2598 6.65222 63.55 6.65222 63.55C6.65687 63.536 6.66152 63.5219 6.66385 63.5055C9.74451 52.8062 17.6101 46.305 21.1372 43.7298V42.3062L20.0886 40.5542H21.5022V34.4658C21.8951 34.0202 22.302 33.5113 22.7042 32.939C23.2041 32.2237 23.604 31.5412 23.9179 30.922L23.8272 27.1344L23.4389 26.7685V25.9734L24.3969 25.7905C24.4596 24.9133 24.5224 24.0385 24.5829 23.1614C24.9153 18.9633 25.2455 14.7675 25.578 10.5694L26.4289 0.0834961L27.3031 10.5413L28.2146 23.2388C28.2704 24.0784 28.3285 24.9204 28.3843 25.76L29.477 26.0297V26.7357L28.9609 27.1695V30.9385C29.2259 31.5037 29.5817 32.1533 30.0629 32.8382C30.4977 33.4573 30.9465 33.978 31.358 34.4095L31.3417 40.5284H32.8809L31.7021 42.3296V43.6665C35.0594 46.0845 42.6251 52.2339 45.8452 62.4994C46.4474 64.4225 46.7915 66.3246 46.7915 66.3246C47.4077 69.8003 47.2961 72.7695 47.0682 74.8381C47.8076 75.2274 48.5469 75.6144 49.2863 76.0037C48.9003 76.2148 48.5121 76.4258 48.1261 76.6369V81.3955C49.1049 81.7638 50.0861 82.132 51.0649 82.5025Z" fill="#05155E" stroke="white" stroke-width="2" stroke-miterlimit="10"/>
<path d="M50.0851 88.1516L50.0941 89.0835L46.813 88.4175C46.3455 85.4948 45.3927 84.4671 44.5836 84.079C44.1611 83.8754 43.3184 83.4873 41.7205 83.7795C39.4732 84.1892 38.6866 83.8322 38.4237 83.3651C37.9585 82.5386 38.8822 80.888 38.2304 80.3418C38.0911 80.2244 37.9652 80.2316 37.6326 79.9753C37.309 79.7237 37.0146 79.4961 37.0124 79.1943C37.0124 78.8517 37.3809 78.5858 37.536 78.4756C37.9495 78.1785 38.3203 78.1977 38.3293 78.0611C38.3361 77.9485 38.0888 77.8623 37.8776 77.7569C37.4191 77.5245 36.6393 76.94 36.6191 76.3602C36.5989 75.7134 37.5338 75.3085 37.3405 74.6593C37.336 74.6473 37.3337 74.6402 37.3292 74.6282C37.1427 74.0844 36.6528 73.9406 35.7494 73.4016C35.1785 73.0614 35.0932 72.9512 35.0707 72.8171C35.0235 72.5368 35.2752 72.2948 35.5449 71.9834C35.9561 71.5114 36.2415 70.9317 36.6236 70.4334C37.0371 69.8968 37.5922 68.9673 38.1608 67.252V63.601C38.2776 62.6787 38.7743 59.6267 41.2306 57.5161C42.1003 56.7686 42.9835 56.3398 43.6847 56.0835C44.6938 58.0168 45.8781 60.7646 46.6265 64.2311C47.5389 68.4594 47.4467 72.0912 47.2018 74.5347C47.9164 74.9324 48.6311 75.3277 49.3457 75.7254L48.2243 76.3722V81.233L51.0649 82.3637L50.0289 83.1782C50.0469 84.836 50.0671 86.4938 50.0851 88.1516Z" fill="#05155E"/>
<path d="M3.04478 88.1553L3.03579 89.0835C4.07855 88.8711 5.11907 88.6612 6.16183 88.4488C6.71242 85.49 7.71923 84.4759 8.54625 84.0989C8.98897 83.8985 9.81824 83.5119 11.4093 83.8006C13.6567 84.2087 14.4432 83.8531 14.7062 83.3878C15.1714 82.5646 14.2477 80.9206 14.8995 80.3766C15.0388 80.2596 15.1646 80.2668 15.4972 80.0115C15.8209 79.7609 16.1153 79.5343 16.1175 79.2336C16.1175 78.8924 15.7489 78.6275 15.5939 78.5178C15.1804 78.2219 14.8096 78.241 14.8006 78.105C14.7938 77.9928 15.041 77.9069 15.2523 77.8019C15.7107 77.5705 16.4906 76.9883 16.5108 76.4108C16.531 75.7666 15.5961 75.3633 15.7894 74.7167C15.7939 74.7048 15.7961 74.6976 15.8006 74.6857C15.9872 74.144 16.4771 74.0009 17.3805 73.464C17.9513 73.1251 18.0367 73.0154 18.0592 72.8818C18.1064 72.6026 17.8547 72.3616 17.585 72.0514C17.1738 71.5813 16.8883 71.0039 16.5063 70.5076C16.0928 69.9731 15.5377 69.0473 14.9691 67.3388V63.7024C14.8433 62.7622 14.3286 59.7796 11.8993 57.6416C10.9599 56.816 10.0025 56.3507 9.26764 56.0835C8.23836 57.9113 6.94615 60.6887 6.19779 64.2965C5.29885 68.6369 5.58202 72.3091 5.92811 74.595C5.21345 74.9911 4.4988 75.3848 3.78415 75.7809L4.90557 76.4251V81.2666L2.06494 82.3928L3.10096 83.2041C3.08298 84.8553 3.06276 86.5041 3.04478 88.1553Z" fill="#05155E"/>
</svg>
