<svg width="99" height="96" viewBox="0 0 99 96" fill="none" xmlns="http://www.w3.org/2000/svg">
<path d="M9.14606 27.7485V35.7421C9.14606 37.2532 8.76151 38.7502 8.03512 40.0778L1.31248 52.3082C0.400937 53.9606 1.61158 55.9942 3.52013 55.9942H6.90993C8.02088 55.9942 8.91818 56.884 8.91818 57.9856V68.0975C8.91818 73.8738 13.5756 78.5908 19.4009 78.7038C21.8222 78.7462 24.2578 78.7603 26.0524 78.7744C27.4197 78.7744 28.5164 79.876 28.5164 81.2318V95.1993" stroke="white" stroke-width="2" stroke-miterlimit="10"/>
<path d="M78.9219 34.4004C80.1895 36.1375 80.9729 38.5525 80.9729 41.2359C80.9729 44.1593 80.0471 46.772 78.5801 48.5232" stroke="white" stroke-width="2" stroke-miterlimit="10"/>
<path d="M84.9752 29.2881C87.1543 32.2821 88.5074 36.4625 88.5074 41.0807C88.5074 46.1084 86.8979 50.6277 84.377 53.65" stroke="white" stroke-width="2" stroke-miterlimit="10"/>
<path d="M92.7372 24.8254C95.714 28.9211 97.5656 34.6267 97.5656 40.9396C97.5656 47.8174 95.3722 53.975 91.9111 58.0989" stroke="white" stroke-width="2" stroke-miterlimit="10"/>
<path d="M9.17399 27.7346C9.14551 27.3391 9.14551 26.9296 9.14551 26.5341C9.14551 12.4395 22.9469 1 39.9671 1C56.9873 1 70.8029 12.4395 70.8029 26.5341" stroke="white" stroke-width="2" stroke-miterlimit="10"/>
<path d="M70.8037 54.4551C70.8037 61.5306 69.3367 68.5356 66.5023 75.0321L66.1035 75.9501V87.6297" stroke="white" stroke-width="2" stroke-miterlimit="10"/>
<path d="M45.6652 87.093V76.0913L45.4089 75.8936C40.5235 72.2499 37.6465 66.5442 37.6465 60.4855V54.4551" stroke="white" stroke-width="2" stroke-miterlimit="10"/>
<path d="M64.1523 51.1645V36.7874C64.1523 34.9656 65.6478 33.4827 67.4852 33.4827C69.3225 33.4827 70.818 34.9656 70.818 36.7874V54.4692" stroke="white" stroke-width="2" stroke-miterlimit="10"/>
<path d="M57.501 51.1643V30.0648C57.501 28.2429 58.9965 26.76 60.8338 26.76C62.6711 26.76 64.1666 28.2429 64.1666 30.0648V51.1643" stroke="white" stroke-width="2" stroke-miterlimit="10"/>
<path d="M50.8916 51.1646V26.0118C50.8916 24.1899 52.3871 22.707 54.2244 22.707C56.0618 22.707 57.5573 24.1899 57.5573 26.0118V51.1646" stroke="white" stroke-width="2" stroke-miterlimit="10"/>
<path d="M44.2402 51.1643V30.0648C44.2402 28.2429 45.7357 26.76 47.5731 26.76C49.4104 26.76 50.9059 28.2429 50.9059 30.0648V51.1643" stroke="white" stroke-width="2" stroke-miterlimit="10"/>
<path d="M37.6318 58.2398V47.0969C37.6318 45.7693 38.7285 44.6819 40.0674 44.6819C42.4032 44.6819 44.2833 46.5602 44.2833 48.8622V57.8303" stroke="white" stroke-width="2" stroke-miterlimit="10"/>
</svg>
