<svg width="85" height="92" viewBox="0 0 85 92" fill="none" xmlns="http://www.w3.org/2000/svg">
<path d="M55.0565 10.0047C51.0593 8.72789 46.8072 8.04957 42.3807 8.04957C19.5241 8.03627 1 26.4042 1 49.0683C1 71.7323 19.5241 90.1003 42.3807 90.1003C65.2374 90.1003 83.7614 71.7323 83.7614 49.0683" stroke="white" stroke-width="2" stroke-linecap="round" stroke-linejoin="round"/>
<path d="M45.9219 17.333L55.0565 10.0044L47.8266 1" stroke="white" stroke-width="2" stroke-linecap="round" stroke-linejoin="round"/>
<path d="M35.0703 89.4483C37.136 87.4133 41.6564 82.3857 43.3867 74.5118C44.5537 69.1517 43.9635 64.6296 43.3867 61.9695" stroke="white" stroke-width="2" stroke-linecap="round" stroke-linejoin="round"/>
<path d="M43.4405 58.8571C43.4405 60.094 43.3332 61.3177 43.1052 62.4881C42.0857 62.6344 41.0529 62.7142 40.0066 62.7142C28.8332 62.7142 19.7656 53.7231 19.7656 42.6438C19.7656 41.4068 19.8729 40.1965 20.101 39.0127C21.1204 38.8664 22.1532 38.7866 23.2129 38.7866C34.3864 38.7866 43.4405 47.7778 43.4405 58.8571Z" stroke="white" stroke-width="2" stroke-linecap="round" stroke-linejoin="round"/>
<path d="M44.0576 58.8571C44.0576 60.094 44.1649 61.3177 44.393 62.4881C45.4124 62.6344 46.4452 62.7142 47.4915 62.7142C58.6649 62.7142 67.7325 53.7231 67.7325 42.6438C67.7325 41.4068 67.6252 40.1965 67.3972 39.0127C66.3777 38.8664 65.3449 38.7866 64.2852 38.7866C53.1117 38.7866 44.0576 47.7778 44.0576 58.8571Z" stroke="white" stroke-width="2" stroke-linecap="round" stroke-linejoin="round"/>
</svg>
