<svg width="93" height="92" viewBox="0 0 93 92" fill="none" xmlns="http://www.w3.org/2000/svg">
<path d="M54.1225 44.3736C54.7138 45.826 55.0363 47.4117 55.0363 49.0774C55.0363 56.0065 49.3787 61.6164 42.3907 61.6164C35.4027 61.6164 29.7451 56.0065 29.7451 49.0774C29.7451 42.1483 35.4027 36.5383 42.3907 36.5383C44.5274 36.5383 46.5567 37.0713 48.3171 38.0041" stroke="white" stroke-width="2" stroke-linecap="round" stroke-linejoin="round"/>
<path d="M65.6931 36.0854C67.8701 39.923 69.1199 44.3603 69.1199 49.0775C69.1199 63.7086 57.1596 75.568 42.4042 75.568C27.6487 75.568 15.6885 63.7086 15.6885 49.0775C15.6885 34.4464 27.6487 22.5869 42.4042 22.5869C47.6452 22.5869 52.5234 24.0793 56.649 26.6644" stroke="white" stroke-width="2" stroke-linecap="round" stroke-linejoin="round"/>
<path d="M77.9756 28.0503C81.6846 34.2065 83.8079 41.3889 83.8079 49.0775C83.8079 71.7571 65.2763 90.1326 42.404 90.1326C19.5317 90.1326 1 71.7437 1 49.0775C1 26.4113 19.5317 8.02246 42.404 8.02246C50.8702 8.02246 58.7452 10.5409 65.3031 14.8583" stroke="white" stroke-width="2" stroke-linecap="round" stroke-linejoin="round"/>
<path d="M42.4043 49.0775L71.633 20.0951V10.8207L81.5372 1V10.7141L71.633 20.0951" stroke="white" stroke-width="2" stroke-linecap="round" stroke-linejoin="round"/>
<path d="M71.9014 20.2951H81.7115L91.1587 10.4744" stroke="white" stroke-width="2" stroke-linecap="round" stroke-linejoin="round"/>
<path d="M91.1591 10.4744H81.8193" stroke="white" stroke-width="2" stroke-linecap="round" stroke-linejoin="round"/>
</svg>
