<svg width="105" height="77" viewBox="0 0 105 77" fill="none" xmlns="http://www.w3.org/2000/svg">
<path d="M90.8458 8.53776C90.8458 12.6994 87.4548 16.0617 83.2578 16.0617C79.0609 16.0617 75.6699 12.6994 75.6699 8.53776C75.6699 4.37614 79.0609 1 83.2578 1C87.4548 1 90.8458 4.37614 90.8458 8.53776Z" stroke="white" stroke-width="2" stroke-linecap="round" stroke-linejoin="round"/>
<path d="M75.4758 28.7392L66.0396 40.9071L76.5181 50.3327C78.6722 51.9863 78.9918 55.0869 77.213 57.1263L65.0668 72.8909C63.413 74.8063 60.5084 75.0268 58.5767 73.3869C56.645 71.7471 57.2982 68.7981 58.9519 66.8827L66.7205 57.2779C67.6378 56.2031 67.4432 54.5908 66.3036 53.764L57.993 48.2795L51.1 57.7189L34.6456 74.0346C32.8528 75.8123 29.9344 75.8123 28.1278 74.0346C26.335 72.257 26.335 69.3631 28.1278 67.5855L42.5948 53.2541C43.9012 51.9588 44.9296 50.3878 45.5828 48.6653L49.0015 39.7082C49.6825 37.9443 50.5858 36.2769 51.7254 34.7473L62.1761 20.664L55.4637 20.8845C54.8106 20.912 54.1852 21.1739 53.7127 21.6424L45.2909 29.9932C43.7344 31.5366 41.2051 31.5366 39.6486 29.9932C38.0921 28.4498 38.0921 25.9418 39.6486 24.3984L50.3634 13.7877C51.2529 12.9058 52.448 12.4097 53.7127 12.4097H66.9846C69.8335 12.4097 72.5713 13.4707 74.6559 15.3724L86.4547 26.1485C87.3024 26.9202 88.5532 27.058 89.5399 26.493L97.8505 21.7388C99.7822 20.6364 102.256 21.2979 103.368 23.2133C104.452 25.0874 103.84 27.4852 101.978 28.6152L88.8589 35.7533C86.9967 36.8833 84.6063 36.5939 83.0637 35.0643L75.4619 28.7392H75.4758Z" stroke="white" stroke-width="2" stroke-linecap="round" stroke-linejoin="round"/>
<path d="M57.9932 48.2799L54.9219 46.1853" stroke="white" stroke-width="2" stroke-linecap="round" stroke-linejoin="round"/>
<path d="M13.8408 30.3518H29.642" stroke="white" stroke-width="2" stroke-linecap="round" stroke-linejoin="round"/>
<path d="M1 43.884H36.1462" stroke="white" stroke-width="2" stroke-linecap="round" stroke-linejoin="round"/>
<path d="M12.8545 57.9119H28.3778" stroke="white" stroke-width="2" stroke-linecap="round" stroke-linejoin="round"/>
</svg>
