<svg width="106" height="91" viewBox="0 0 106 91" fill="none" xmlns="http://www.w3.org/2000/svg">
<path d="M52.7295 13.8467L57.6873 8.93955C68.3827 -1.64652 85.7278 -1.64652 96.4232 8.93955C107.119 19.5256 107.119 36.6934 96.4232 47.2795L88.4494 55.1717" stroke="white" stroke-width="2" stroke-linecap="round" stroke-linejoin="round"/>
<path d="M48.8019 9.97341L47.7574 8.93955C37.0767 -1.64652 19.7316 -1.64652 9.02154 8.93955C-1.67385 19.5256 -1.67385 36.6934 9.02154 47.2795L18.5106 56.6715" stroke="white" stroke-width="2" stroke-linecap="round" stroke-linejoin="round"/>
<path d="M24.8415 50.5874L19.224 56.1475C17.1155 58.2345 17.1132 61.6158 19.2188 63.6999C21.3245 65.784 24.7407 65.7817 26.8492 63.6948L32.4667 58.1347C34.5752 56.0477 34.5776 52.6664 32.4719 50.5823C30.3663 48.4982 26.95 48.5005 24.8415 50.5874Z" stroke="white" stroke-width="2" stroke-linecap="round" stroke-linejoin="round"/>
<path d="M32.2683 58.4012L26.6508 63.9612C24.5423 66.0482 24.54 69.4295 26.6456 71.5136C28.7512 73.5977 32.1675 73.5954 34.276 71.5085L39.8935 65.9484C42.002 63.8615 42.0043 60.4801 39.8987 58.396C37.793 56.3119 34.3768 56.3142 32.2683 58.4012Z" stroke="white" stroke-width="2" stroke-linecap="round" stroke-linejoin="round"/>
<path d="M40.0232 65.8023L34.4057 71.3623C32.2972 73.4493 32.2948 76.8306 34.4005 78.9147C36.5061 80.9989 39.9224 80.9966 42.0309 78.9096L47.6484 73.3495C49.7569 71.2626 49.7592 67.8812 47.6536 65.7971C45.5479 63.713 42.1317 63.7153 40.0232 65.8023Z" stroke="white" stroke-width="2" stroke-linecap="round" stroke-linejoin="round"/>
<path d="M47.6325 73.3555L42.0151 78.9156C39.9066 81.0025 39.9042 84.3838 42.0099 86.468C44.1155 88.5521 47.5317 88.5498 49.6403 86.4628L55.2577 80.9028C57.3662 78.8158 57.3686 75.4345 55.2629 73.3504C53.1573 71.2662 49.741 71.2685 47.6325 73.3555Z" stroke="white" stroke-width="2" stroke-linecap="round" stroke-linejoin="round"/>
<path d="M72.3408 54.3416L81.7857 63.6899C83.8895 65.7722 87.3026 65.7722 89.4064 63.6899C91.5101 61.6077 91.5101 58.2295 89.4064 56.1472L79.9615 46.7988" stroke="white" stroke-width="2" stroke-linecap="round" stroke-linejoin="round"/>
<path d="M64.7197 61.8989L74.1646 71.2473C76.2684 73.3296 79.6815 73.3296 81.7853 71.2473C83.889 69.165 83.889 65.7868 81.7853 63.7045" stroke="white" stroke-width="2" stroke-linecap="round" stroke-linejoin="round"/>
<path d="M81.7857 63.6902L72.3408 54.3418" stroke="white" stroke-linecap="round" stroke-linejoin="round"/>
<path d="M57.085 69.4417L66.5299 78.79C68.6336 80.8723 72.0467 80.8723 74.1505 78.79C76.2543 76.7077 76.2543 73.3295 74.1505 71.2473L73.1942 70.3008" stroke="white" stroke-width="2" stroke-linecap="round" stroke-linejoin="round"/>
<path d="M73.2084 70.3008L64.7197 61.8989" stroke="white" stroke-width="2" stroke-linecap="round" stroke-linejoin="round"/>
<path d="M54.2744 81.8627L58.835 86.3767C60.9388 88.459 64.3519 88.459 66.4557 86.3767C68.5595 84.2944 68.5595 80.9162 66.4557 78.834C62.5424 74.9607 57.0108 69.4856 57.0108 69.4856" stroke="white" stroke-width="2" stroke-linecap="round" stroke-linejoin="round"/>
<path d="M60.1299 27.1558L79.9759 46.799" stroke="white" stroke-width="2" stroke-linecap="round" stroke-linejoin="round"/>
<path d="M60.1303 27.1559L51.7447 35.4559C47.0222 40.13 39.3574 40.13 34.635 35.4559L32.7666 33.6066L52.8627 13.7158" stroke="white" stroke-width="2" stroke-linecap="round" stroke-linejoin="round"/>
</svg>
