<svg width="91" height="89" viewBox="0 0 91 89" fill="none" xmlns="http://www.w3.org/2000/svg">
<path d="M32.8414 64.1461C50.4269 64.1461 64.6828 50.0104 64.6828 32.5731C64.6828 15.1357 50.4269 1 32.8414 1C15.2559 1 1 15.1357 1 32.5731C1 50.0104 15.2559 64.1461 32.8414 64.1461Z" stroke="white" stroke-width="2" stroke-linecap="round" stroke-linejoin="round"/>
<path d="M57.2539 63.5615L66.1329 54.7574L86.5608 75.0132C89.0084 77.4401 89.0084 81.3904 86.5608 83.8173C84.1133 86.2443 80.1294 86.2443 77.6819 83.8173L57.2539 63.5615Z" stroke="white" stroke-width="2" stroke-linecap="round" stroke-linejoin="round"/>
<path d="M59.8281 61.0112L54.5537 55.7812" stroke="white" stroke-width="2" stroke-linecap="round" stroke-linejoin="round"/>
<path d="M63.8286 57.0439L58.8389 52.0962" stroke="white" stroke-width="2" stroke-linecap="round" stroke-linejoin="round"/>
<path d="M15.5049 15.0404C19.9402 10.6425 26.0687 7.92346 32.8416 7.92346C46.3873 7.92346 57.3707 18.8143 57.3707 32.2459C57.3707 42.3195 51.1972 50.9668 42.3865 54.6516" stroke="white" stroke-width="2" stroke-linecap="round" stroke-linejoin="round"/>
</svg>
