<svg width="85" height="96" viewBox="0 0 85 96" fill="none" xmlns="http://www.w3.org/2000/svg">
<g clip-path="url(#clip0_579_101)">
<path d="M13.6211 95.1867C13.6211 82.1579 26.5506 71.6014 42.4911 71.6014C58.4317 71.6014 71.3612 82.1579 71.3612 95.1867" stroke="white" stroke-width="2" stroke-linecap="round" stroke-linejoin="round"/>
<path d="M42.4913 64.2981C49.8011 64.2981 55.7268 58.312 55.7268 50.9278C55.7268 43.5435 49.8011 37.5574 42.4913 37.5574C35.1816 37.5574 29.2559 43.5435 29.2559 50.9278C29.2559 58.312 35.1816 64.2981 42.4913 64.2981Z" stroke="white" stroke-width="2" stroke-linecap="round" stroke-linejoin="round"/>
<path d="M42.4918 0.813232L45.4545 10.0033H55.0349L47.2901 15.6963L50.2367 24.8864L42.4918 19.2097L34.747 24.8864L37.7097 15.6963L29.9648 10.0033H39.5453L42.4918 0.813232Z" stroke="white" stroke-width="2" stroke-linecap="round" stroke-linejoin="round"/>
<path d="M24.8607 29.8312L9.30664 14.1185" stroke="white" stroke-width="2" stroke-linecap="round" stroke-linejoin="round"/>
<path d="M19.2892 44.3402L0.804688 40.5015" stroke="white" stroke-width="2" stroke-linecap="round" stroke-linejoin="round"/>
<path d="M60.1387 30.4167L75.6928 14.7203" stroke="white" stroke-width="2" stroke-linecap="round" stroke-linejoin="round"/>
<path d="M65.71 44.942L84.1945 41.087" stroke="white" stroke-width="2" stroke-linecap="round" stroke-linejoin="round"/>
</g>
<defs>
<clipPath id="clip0_579_101">
<rect width="85" height="96" fill="white"/>
</clipPath>
</defs>
</svg>
